# xmcd CD database file
#
# Track frame offsets:
#	150
#	23703
#	35808
#	52617
#	71682
#
# Disc length: 1224 seconds
#
# Revision: 0
# Processed by: cddbd v1.5.1PL0 Copyright (c) Steve Scherf et al.
# Submitted via: CDex 1.51
#
DISCID=3904c605
DTITLE=Johannes Achatz - [sla:f]
DYEAR=2004
DGENRE=Jazz
TTITLE0=von wegen
TTITLE1=im Raster
TTITLE2=Al
TTITLE3=Geschmeide
TTITLE4=[sla:f]
EXTD=YEAR: 2004
EXTT0=
EXTT1=
EXTT2=
EXTT3=
EXTT4=
PLAYORDER=
